<?xml version="1.0" encoding="UTF-8"?>
<svg id="Ebene_1" xmlns="http://www.w3.org/2000/svg" version="1.1" viewBox="0 0 411 96.4">
  <!-- Generator: Adobe Illustrator 29.0.0, SVG Export Plug-In . SVG Version: 2.1.0 Build 186)  -->
  <g id="Claim">
    <path d="M119.8,82.1l-3.1-9.1h0l-3,9.1h-1.7l-3.5-11.2h1.6l2.7,9.2h0l3-9.2h1.7l3.1,9.2h0l2.7-9.2h1.6l-3.4,11.2h-1.7Z" fill="#20201e"/>
    <path d="M127.5,68.1v-1.8h1.7v1.8h-1.7ZM129,82.1h-1.4v-11.2h1.5v11.2h-.1Z" fill="#20201e"/>
    <path d="M133.3,82.1v-11.2h1.3v.7c1.7-.6,2.6-1,4-1h.2v1.4h-.3c-1.2,0-1.9.3-3.6.8v9.3h-1.5Z" fill="#20201e"/>
    <path d="M147.1,82.1v-9.9h-1.9v-1.3h1.9c0-1.4,0-2.9,1.1-4,.8-.8,1.7-1,3.1-1s1.2,0,1.8.1v1.4c-.5-.1-1.1-.2-1.7-.2-2.3,0-2.8,1.1-2.8,3.6h3.4v1.3h-3.4v9.9h-1.5Z" fill="#20201e"/>
    <path d="M154.5,81.3c-1.1-.9-1.6-2.3-1.6-4.7,0-2.4.6-3.8,1.6-4.7,1-.8,2.3-1.2,3.6-1.2s2.7.3,3.6,1.2c1.1.9,1.6,2.3,1.6,4.7s-.6,3.8-1.6,4.7c-1,.9-2.3,1.2-3.6,1.2s-2.6-.3-3.6-1.2ZM161.8,76.6c0-3.1-1.1-4.6-3.7-4.6s-3.6,1.4-3.6,4.6,1.1,4.6,3.6,4.6,3.7-1.4,3.7-4.6Z" fill="#20201e"/>
    <path d="M166.3,82.1v-11.2h1.3v.7c1.7-.6,2.6-1,4-1h.2v1.4h-.3c-1.2,0-1.9.3-3.6.8v9.3h-1.5Z" fill="#20201e"/>
    <path d="M189.7,82.1v-7.3c0-2.1-1.1-2.9-2.8-2.9s-2.1.3-3.6.9c.2.6.3,1.3.3,2.1v7.2h-1.5v-7.3c0-2.1-1.1-2.9-2.8-2.9s-2,.3-3.3.8v9.4h-1.5v-11.2h1.3v.6c1.4-.4,2.7-.9,4-.9s2.3.3,3,1.1c1.4-.5,3.3-1.1,4.7-1.1s2.4.4,3.1,1.2c.6.8.8,1.8.8,3v7.2h-1.5Z" fill="#20201e"/>
    <path d="M198.9,82.4c-1.2,0-2.5-.3-3.4-1.3-1-1.1-1.5-2.7-1.5-4.6s.5-3.6,1.7-4.7c.8-.7,1.9-1.2,3.4-1.2s2.4.3,3.2,1.1c1.3,1.1,1.4,2.8,1.4,5.1h-8.1c0,2.8,1.3,4.2,3.6,4.2s2.7-.3,4.2-.7v1.3c-1.4.3-2.9.7-4.4.7ZM198.9,71.8c-2.3,0-3.1,1.5-3.3,3.8h6.6c0-2.5-1-3.8-3.3-3.8Z" fill="#20201e"/>
    <path d="M214.7,82.1v-7.3c0-2.1-1.1-2.9-2.9-2.9s-2.1.3-3.6.8v9.3h-1.5v-11.2h1.3v.6c1.4-.4,2.9-.9,4.2-.9s2.5.3,3.2,1.2c.7.8.8,1.8.8,3v7.2h-1.5Z" fill="#20201e"/>
    <path d="M225.8,68.1v-1.8h1.7v1.8h-1.7ZM227.3,82.1h-1.4v-11.2h1.5v11.2h-.1Z" fill="#20201e"/>
    <path d="M239,82.1v-.6c-1.3.4-2.7.9-4,.9s-2.3-.4-3.1-1.2c-1-1.1-1.4-2.6-1.4-4.7s.8-3.9,1.9-4.8c1-.8,2.1-1.1,3.5-1.1s2,.2,2.9.5v-4.9h1.5v15.9h-1.3ZM238.7,80.3v-7.8c-.8-.4-1.8-.6-2.7-.6-2.6,0-4,1.4-4,4.6s1.4,4.6,3.3,4.6,2.3-.4,3.4-.8Z" fill="#20201e"/>
    <path d="M248.1,82.4c-1.2,0-2.5-.3-3.4-1.3-1-1.1-1.5-2.7-1.5-4.6s.5-3.6,1.7-4.7c.8-.7,1.9-1.2,3.4-1.2s2.4.3,3.2,1.1c1.3,1.1,1.4,2.8,1.4,5.1h-8.1c0,2.8,1.3,4.2,3.6,4.2s2.7-.3,4.2-.7v1.3c-1.4.3-2.9.7-4.4.7ZM248.1,71.8c-2.3,0-3.1,1.5-3.3,3.8h6.6c0-2.5-1-3.8-3.3-3.8Z" fill="#20201e"/>
    <path d="M259.9,82.4c-1.2,0-2.5-.3-3.4-1.3-1-1.1-1.5-2.7-1.5-4.6s.5-3.6,1.7-4.7c.8-.7,1.9-1.2,3.4-1.2s2.4.3,3.2,1.1c1.3,1.1,1.4,2.8,1.4,5.1h-8.1c0,2.8,1.3,4.2,3.6,4.2s2.7-.3,4.2-.7v1.3c-1.4.3-2.9.7-4.4.7ZM259.9,71.8c-2.3,0-3.1,1.5-3.3,3.8h6.6c0-2.5-1-3.8-3.3-3.8Z" fill="#20201e"/>
    <path d="M275.8,82.1v-7.3c0-2.1-1.1-2.9-2.9-2.9s-2.1.3-3.6.8v9.3h-1.5v-11.2h1.3v.6c1.4-.4,2.9-.9,4.2-.9s2.5.3,3.2,1.2c.7.8.8,1.8.8,3v7.2h-1.5Z" fill="#20201e"/>
    <path d="M294.1,82.1v-.6c-1.5.5-2.7.9-4.1.9s-1.9-.2-2.6-.9c-.7-.6-1.1-1.5-1.1-2.6s.5-2.3,1.6-2.9c.8-.4,1.7-.5,2.9-.5s2,0,3.1.2v-.6c0-2.5-1-3.2-3.6-3.2s-1.8,0-2.6.2v-1.3c1,0,1.9-.2,2.9-.2,1.4,0,2.9.2,3.9,1.1.9.9,1,2.1,1,3.7v6.7h-1.3ZM293.8,77c-1-.1-2.2-.2-3.1-.2-2.2,0-2.9.8-2.9,2.2s.9,2.2,2.5,2.2,2.3-.4,3.6-.8v-3.4Z" fill="#20201e"/>
    <path d="M307,82.1v-.6c-1.4.4-2.7.9-4,.9s-2.3-.4-3.1-1.2c-.6-.8-.8-1.8-.8-3v-7.2h1.5v7.3c0,2.1,1.1,2.9,2.8,2.9s2-.3,3.4-.8v-9.4h1.5v11.2h-1.3Z" fill="#20201e"/>
    <path d="M317.8,81.8c-.8.4-1.9.6-3.1.6s-2,0-3.1-.2v-1.3c1.1,0,2.1.2,3,.2s1.6,0,2.2-.3c.7-.3,1-1,1-1.6,0-1-.6-1.5-1.6-1.8-.6-.2-1.2-.4-2-.6-1.7-.5-2.6-1.2-2.6-3.1s.4-2,1.4-2.6c.8-.4,1.8-.6,2.9-.6s1.8,0,2.8.2v1.3c-1-.1-2-.2-2.7-.2s-1.4,0-2,.3c-.7.3-.9.9-.9,1.5,0,.9.5,1.3,1.5,1.7.6.2,1.2.3,2,.6,1.7.5,2.8,1.3,2.8,3.2s-.4,2.1-1.4,2.7Z" fill="#20201e"/>
    <path d="M343.4,82.1v-7.3c0-2.1-1.1-2.9-2.8-2.9s-2.1.3-3.6.9c.2.6.3,1.3.3,2.1v7.2h-1.5v-7.3c0-2.1-1.1-2.9-2.8-2.9s-2,.3-3.3.8v9.4h-1.5v-11.2h1.3v.6c1.4-.4,2.7-.9,4-.9s2.3.3,3,1.1c1.4-.5,3.3-1.1,4.7-1.1s2.4.4,3.1,1.2c.6.8.8,1.8.8,3v7.2h-1.5Z" fill="#20201e"/>
    <path d="M352.5,82.4c-1.2,0-2.5-.3-3.4-1.3-1-1.1-1.5-2.7-1.5-4.6s.5-3.6,1.7-4.7c.8-.7,1.9-1.2,3.4-1.2s2.4.3,3.2,1.1c1.3,1.1,1.4,2.8,1.4,5.1h-8.1c0,2.8,1.3,4.2,3.6,4.2s2.7-.3,4.2-.7v1.3c-1.4.3-2.9.7-4.4.7ZM352.5,71.8c-2.3,0-3.1,1.5-3.3,3.8h6.6c0-2.5-1-3.8-3.3-3.8Z" fill="#20201e"/>
    <path d="M363.7,82.4c-1.3,0-2.5-.5-2.9-2-.2-.8-.3-1.9-.3-2.9v-5.3h-1.9v-1.3h1.9l.2-3.4h1.3v3.4h3.4v1.3h-3.4v5.1c0,.8,0,1.6.2,2.3.2,1.1.8,1.4,1.8,1.4s1.1-.1,1.6-.2v1.3c-.6.1-1.3.3-1.9.3Z" fill="#20201e"/>
    <path d="M375.4,82.1v-.6c-1.5.5-2.7.9-4.1.9s-1.9-.2-2.6-.9c-.7-.6-1.1-1.5-1.1-2.6s.5-2.3,1.6-2.9c.8-.4,1.7-.5,2.9-.5s2,0,3.1.2v-.6c0-2.5-1-3.2-3.6-3.2s-1.8,0-2.6.2v-1.3c1,0,1.9-.2,2.9-.2,1.4,0,2.9.2,3.9,1.1.9.9,1,2.1,1,3.7v6.7h-1.3ZM375.2,77c-1-.1-2.2-.2-3.1-.2-2.2,0-2.9.8-2.9,2.2s.9,2.2,2.5,2.2,2.3-.4,3.6-.8v-3.4Z" fill="#20201e"/>
    <path d="M380.6,82.1v-15.9h1.5v15.9h-1.5Z" fill="#20201e"/>
    <path d="M386.3,82.1v-15.9h1.5v15.9h-1.5Z" fill="#20201e"/>
  </g>
  <g id="mauser">
    <path d="M163.5,55.7v-24.8c0-6-3.2-8.1-8-8.1s-5.9.9-9.8,2.3c.5,1.6.6,3.4.6,5.1v25.4h-10.3v-24.8c0-6-3.3-8.1-8-8.1s-5.7.8-9.3,2.2v30.7h-10.4V15.3h8.8l.2,2.2c5-1.8,9.7-3.3,14.4-3.3s8,1,10.9,4.1c5.4-2,11.5-4.1,16.8-4.1s8.3,1.2,11.3,4.6c2.6,3,3.3,6.7,3.3,11.5v25.4h-10.4Z" fill="#20201e"/>
    <path d="M211.7,55.7l-.2-2.2c-5.3,1.8-9.7,3.3-14.8,3.3s-7-.9-9.5-3.3c-2.6-2.4-3.9-5.4-3.9-9.6s1.8-8.6,5.8-10.7c3.1-1.7,6.3-2,10.6-2s6.8.2,10.4.6v-1.4c0-6.1-2.6-8.5-11-8.5s-7.4.2-11.1.6v-7.7c4.3-.4,8.7-.7,13-.7s11.5.6,15.2,3.8c3.8,3.3,4.3,7.8,4.3,13.4v24.2h-8.8ZM210.1,38.4c-2.7-.3-6.2-.5-8.6-.5-6,0-8.2,2.1-8.2,5.7s2.3,5.8,6.6,5.8,6.8-1,10.2-2v-9Z" fill="#20201e"/>
    <path d="M261,55.7l-.3-2.1c-5,1.8-9.6,3.2-14.4,3.2s-8.3-1.2-11.2-4.6c-2.6-3-3.4-6.7-3.4-11.5V15.3h10.4v24.8c0,6.1,3.2,8.1,7.9,8.1s5.7-.8,9.4-2.1V15.3h10.4v40.4h-8.8Z" fill="#20201e"/>
    <path d="M304.7,54.5c-3.2,1.8-7,2.3-12.4,2.3s-7.7-.2-12.6-.7v-7.8c4.2.6,8.4.9,11.4.9s4.7-.2,6.6-.7c2.1-.7,2.7-2.2,2.7-3.9s-1.3-3.5-3.8-4.3c-1.8-.6-3.6-1-6.2-1.6-7.2-1.8-10.6-4.9-10.6-11.8s1.5-8.2,5.3-10.4c3.1-1.8,6.8-2.2,11.8-2.2s7.1.2,11.4.7v7.5c-3.5-.4-7.5-.8-10.5-.8s-4,.2-5.6.6c-2,.7-2.6,2.2-2.6,3.7s1.1,3.1,3.5,3.9c1.7.6,3.6,1,5.8,1.5,7.6,1.7,11.4,5,11.4,12.3s-1.6,8.6-5.5,10.8Z" fill="#20201e"/>
    <path d="M334,56.8c-4.5,0-9.6-1-13.2-4.6-3.8-4-5.3-9.8-5.3-16.7s1.6-13,6.1-17c3.6-3.1,8-4.3,13.8-4.3s9.5.9,13.3,4.2c5.1,4.4,5.4,10.6,5.4,19.4h-28.1c.2,7.5,3.8,11.1,11,11.1s10.2-1,15.6-2.2v7.4c-5.9,1.3-12.5,2.6-18.6,2.6ZM334.9,20.8c-6.3,0-8.4,4-8.8,10.2h17.7c-.2-6.9-2.6-10.2-8.9-10.2Z" fill="#20201e"/>
    <path d="M362.9,55.7V15.3h8.8l.3,2.6c5.7-2.2,9.4-3.7,14.7-3.7s.7,0,1.1,0v9h-2.6c-3.8,0-7.2.6-11.9,2.3v30.2h-10.4Z" fill="#20201e"/>
  </g>
  <g id="Mauser-Signet">
    <path id="Maus" d="M80.8,76.5c-1-1.9-1.6-3-3.1-4.5-1.7-1.7-2.8-2.6-5-3.6-.5-.2-1.2-.4-1.2-.4,0,0,.4-1.7.4-2.9,0-.8,0-1.2-.2-2-.3-1.3-.6-2.2-1.6-3.2-1.3-1.3-2.8-2.2-4.3-1.8-1.4.3-2.2.9-3,2-.6.9-.8,1.6-.9,2.7,0,.7.1,1.7.1,1.7,0,0-1.1-1-1.9-1.6-1.4-1.1-2.3-1.6-3.9-2.4-1.8-.8-2.9-1.1-4.9-1.6-2.4-.6-3.8-.7-6.3-.8-3.3,0-5.2.1-8.4.9-2.4.6-3.7,1-5.9,2.1-4.8,2.3-7,4.7-10.2,9,0,0-3.2,4.7-4.5,8-.6,1.5-1.3,4-1.3,4h68s-.3-2.6-1.9-5.7ZM72.2,73.6c-.9,0-1.4-.9-1-1.7.4-.7,1.5-.8,1.9,0,.4.7-.1,1.7-1,1.7Z" fill="#0d68b0"/>
    <path id="Quadrat" d="M18.9,69.1c-.1.2-2.8,4.1-4.3,7.4V14.2h68v62c0-.2-.2-.3-.2-.5-1.1-2.1-1.8-3.3-3.4-5-1.7-1.8-3-2.9-5.5-3.9,0-.5.1-1.2.1-1.7,0-.8,0-1.4-.3-2.4-.3-1.4-.7-2.6-2-4-1.6-1.6-3.3-2.5-4.9-2.5s-.7,0-1.1.1c-1.8.4-3,1.2-4.1,2.7-.5.6-.7,1.2-.9,1.8-1.1-.8-2-1.3-3.4-1.9-2-.9-3.3-1.3-5.2-1.7-2.5-.6-4-.8-6.7-.8-.4,0-.8,0-1.2,0-2.7,0-4.6.2-7.6,1-2.5.6-3.9,1.1-6.3,2.2-5,2.5-7.5,5-10.9,9.5h0s0,0,0,0Z"/>
  </g>
</svg>